<mxfile host="app.diagrams.net" agent="Mozilla/5.0 (Windows NT 10.0; Win64; x64) AppleWebKit/537.36 (KHTML, like Gecko) Chrome/132.0.0.0 Safari/537.36" version="26.0.8">
  <diagram id="R2lEEEUBdFMjLlhIrx00" name="Page-1">
    <mxGraphModel dx="1793" dy="-135" grid="1" gridSize="10" guides="1" tooltips="1" connect="1" arrows="1" fold="1" page="1" pageScale="1" pageWidth="850" pageHeight="1100" math="0" shadow="0" extFonts="Permanent Marker^https://fonts.googleapis.com/css?family=Permanent+Marker">
      <root>
        <mxCell id="0" />
        <mxCell id="1" parent="0" />
        <mxCell id="wkWIW-sbkFtgI-aQdSFa-251" value="User" style="swimlane;fontStyle=0;childLayout=stackLayout;horizontal=1;startSize=26;horizontalStack=0;resizeParent=1;resizeParentMax=0;resizeLast=0;collapsible=1;marginBottom=0;align=center;fontSize=14;strokeColor=#6c8ebf;fillColor=#dae8fc;" parent="1" vertex="1">
          <mxGeometry x="540" y="1360" width="480" height="210" as="geometry" />
        </mxCell>
        <mxCell id="wkWIW-sbkFtgI-aQdSFa-252" value="_id ObjectId()&lt;span style=&quot;white-space: pre;&quot;&gt;&#x9;&lt;/span&gt;// ID unique de l&#39;utilisateur, généré par MongoDB." style="text;strokeColor=none;fillColor=none;spacingLeft=4;spacingRight=4;overflow=hidden;rotatable=0;points=[[0,0.5],[1,0.5]];portConstraint=eastwest;fontSize=12;whiteSpace=wrap;html=1;" parent="wkWIW-sbkFtgI-aQdSFa-251" vertex="1">
          <mxGeometry y="26" width="480" height="30" as="geometry" />
        </mxCell>
        <mxCell id="wkWIW-sbkFtgI-aQdSFa-253" value="name varchar&lt;span style=&quot;white-space: pre;&quot;&gt;&#x9;&lt;/span&gt;// Nom affiché de l&#39;utilisateur." style="text;strokeColor=none;fillColor=none;spacingLeft=4;spacingRight=4;overflow=hidden;rotatable=0;points=[[0,0.5],[1,0.5]];portConstraint=eastwest;fontSize=12;whiteSpace=wrap;html=1;" parent="wkWIW-sbkFtgI-aQdSFa-251" vertex="1">
          <mxGeometry y="56" width="480" height="30" as="geometry" />
        </mxCell>
        <mxCell id="wkWIW-sbkFtgI-aQdSFa-254" value="email varchar&lt;span style=&quot;white-space: pre;&quot;&gt;&#x9;&lt;/span&gt;// Adresse e-mail de l&#39;utilisateur, unique et utilisée pour la connexion." style="text;strokeColor=none;fillColor=none;spacingLeft=4;spacingRight=4;overflow=hidden;rotatable=0;points=[[0,0.5],[1,0.5]];portConstraint=eastwest;fontSize=12;whiteSpace=wrap;html=1;" parent="wkWIW-sbkFtgI-aQdSFa-251" vertex="1">
          <mxGeometry y="86" width="480" height="30" as="geometry" />
        </mxCell>
        <mxCell id="wkWIW-sbkFtgI-aQdSFa-255" value="password hashed_password&amp;nbsp; // Mot de passe haché de l&#39;utilisateur, stocké en sécurité." style="text;strokeColor=none;fillColor=none;spacingLeft=4;spacingRight=4;overflow=hidden;rotatable=0;points=[[0,0.5],[1,0.5]];portConstraint=eastwest;fontSize=12;whiteSpace=wrap;html=1;" parent="wkWIW-sbkFtgI-aQdSFa-251" vertex="1">
          <mxGeometry y="116" width="480" height="34" as="geometry" />
        </mxCell>
        <mxCell id="wkWIW-sbkFtgI-aQdSFa-256" value="profile_picture varchar&amp;nbsp; // URL de la photo de profil de l&#39;utilisateur, optionnelle." style="text;strokeColor=none;fillColor=none;spacingLeft=4;spacingRight=4;overflow=hidden;rotatable=0;points=[[0,0.5],[1,0.5]];portConstraint=eastwest;fontSize=12;whiteSpace=wrap;html=1;" parent="wkWIW-sbkFtgI-aQdSFa-251" vertex="1">
          <mxGeometry y="150" width="480" height="30" as="geometry" />
        </mxCell>
        <mxCell id="wkWIW-sbkFtgI-aQdSFa-257" value="game_list list&amp;nbsp; // Liste des jeux associés à l&#39;utilisateur." style="text;strokeColor=none;fillColor=none;spacingLeft=4;spacingRight=4;overflow=hidden;rotatable=0;points=[[0,0.5],[1,0.5]];portConstraint=eastwest;fontSize=12;whiteSpace=wrap;html=1;" parent="wkWIW-sbkFtgI-aQdSFa-251" vertex="1">
          <mxGeometry y="180" width="480" height="30" as="geometry" />
        </mxCell>
        <mxCell id="wkWIW-sbkFtgI-aQdSFa-258" value="Game" style="swimlane;fontStyle=0;childLayout=stackLayout;horizontal=1;startSize=26;horizontalStack=0;resizeParent=1;resizeParentMax=0;resizeLast=0;collapsible=1;marginBottom=0;align=center;fontSize=14;fillColor=#f8cecc;strokeColor=#b85450;" parent="1" vertex="1">
          <mxGeometry x="40" y="1110" width="450" height="840" as="geometry">
            <mxRectangle x="40" y="1200" width="80" height="30" as="alternateBounds" />
          </mxGeometry>
        </mxCell>
        <mxCell id="Fe-9JFW8YyZdNJE1xxGx-4" value="_&lt;span class=&quot;hljs-function&quot;&gt;id &lt;span class=&quot;hljs-title&quot;&gt;ObjectId&lt;/span&gt;()                  &lt;span class=&quot;hljs-comment&quot;&gt;// Identifiant unique du jeu, généré automatiquement par MongoDB.&lt;/span&gt;&lt;br&gt;&lt;br&gt;&lt;/span&gt;&lt;div&gt;&lt;span class=&quot;hljs-function&quot;&gt;title varchar                   &lt;span class=&quot;hljs-comment&quot;&gt;// Titre du jeu, requis pour l&#39;affichage et la recherche.&lt;/span&gt;&lt;br&gt;&lt;br&gt;&lt;/span&gt;&lt;/div&gt;&lt;div&gt;&lt;span class=&quot;hljs-function&quot;&gt;description varchar             &lt;span class=&quot;hljs-comment&quot;&gt;// Résumé ou description du jeu.&lt;/span&gt;&lt;br&gt;&lt;br&gt;&lt;/span&gt;&lt;/div&gt;&lt;div&gt;&lt;span class=&quot;hljs-function&quot;&gt;release_date date               &lt;span class=&quot;hljs-comment&quot;&gt;// Date de sortie du jeu.&lt;/span&gt;&lt;br&gt;&lt;br&gt;&lt;/span&gt;&lt;/div&gt;&lt;div&gt;&lt;span class=&quot;hljs-function&quot;&gt;cover&lt;/span&gt; {&lt;br&gt;&lt;/div&gt;&lt;div&gt;    thumb varchar               &lt;span class=&quot;hljs-comment&quot;&gt;// URL vers la version miniature de l&#39;image de couverture.&lt;/span&gt;&lt;br&gt;&lt;/div&gt;&lt;div&gt;    original varchar            &lt;span class=&quot;hljs-comment&quot;&gt;// URL vers la version haute résolution de l&#39;image de couverture.&lt;/span&gt;&lt;br&gt;&lt;/div&gt;&lt;div&gt;}&lt;br&gt;&lt;br&gt;&lt;/div&gt;&lt;div&gt;genres list                     &lt;span class=&quot;hljs-comment&quot;&gt;// Liste des genres associés au jeu (ex. Aventure, Action).&lt;/span&gt;&lt;br&gt;&lt;br&gt;&lt;/div&gt;&lt;div&gt;platforms list                  &lt;span class=&quot;hljs-comment&quot;&gt;// Liste des plateformes où le jeu est disponible.&lt;/span&gt;&lt;br&gt;&lt;br&gt;&lt;/div&gt;&lt;div&gt;platform_logos list {&lt;br&gt;&lt;/div&gt;&lt;div&gt;    thumb varchar               &lt;span class=&quot;hljs-comment&quot;&gt;// URL vers la version miniature du logo de la plateforme.&lt;/span&gt;&lt;br&gt;&lt;/div&gt;&lt;div&gt;    original varchar            &lt;span class=&quot;hljs-comment&quot;&gt;// URL vers la version haute résolution du logo.&lt;/span&gt;&lt;br&gt;}&lt;br&gt;&lt;br&gt;&lt;/div&gt;&lt;div&gt;developers list                 &lt;span class=&quot;hljs-comment&quot;&gt;// Liste des développeurs ayant créé le jeu.&lt;/span&gt;&lt;br&gt;&lt;br&gt;&lt;/div&gt;&lt;div&gt;publishers list                 &lt;span class=&quot;hljs-comment&quot;&gt;// Liste des éditeurs responsables de la sortie du jeu.&lt;/span&gt;&lt;br&gt;&lt;br&gt;&lt;/div&gt;&lt;div&gt;game_modes {&lt;br&gt;&lt;/div&gt;&lt;div&gt;    en list                    &lt;span class=&quot;hljs-comment&quot;&gt;// Modes de jeu en anglais (ex. Single Player, Multiplayer).&lt;/span&gt;&lt;br&gt;&lt;/div&gt;&lt;div&gt;    fr list                    &lt;span class=&quot;hljs-comment&quot;&gt;// Modes de jeu en français (ex. Solo, Multijoueur).&lt;/span&gt;&lt;br&gt;&lt;/div&gt;&lt;div&gt;}&lt;br&gt;&lt;br&gt;&lt;/div&gt;&lt;div&gt;player_perspectives {&lt;br&gt;&lt;/div&gt;&lt;div&gt;    en list                    &lt;span class=&quot;hljs-comment&quot;&gt;// Perspectives en anglais (ex. First Person, Third Person).&lt;/span&gt;&lt;br&gt;&lt;/div&gt;&lt;div&gt;    fr list                    &lt;span class=&quot;hljs-comment&quot;&gt;// Perspectives en français (ex. Première Personne, Troisième Personne).&lt;/span&gt;&lt;br&gt;&lt;/div&gt;&lt;div&gt;}&lt;br&gt;&lt;br&gt;&lt;/div&gt;&lt;div&gt;themes {&lt;br&gt;&lt;/div&gt;&lt;div&gt;    en list                    &lt;span class=&quot;hljs-comment&quot;&gt;// Thèmes du jeu en anglais (ex. Open World, Sandbox).&lt;/span&gt;&lt;br&gt;&lt;/div&gt;&lt;div&gt;    fr list                    &lt;span class=&quot;hljs-comment&quot;&gt;// Thèmes du jeu en français (ex. Monde Ouvert, Bac à Sable).&lt;/span&gt;&lt;br&gt;&lt;/div&gt;&lt;div&gt;}&lt;br&gt;&lt;br&gt;&lt;/div&gt;&lt;div&gt;franchises list                 &lt;span class=&quot;hljs-comment&quot;&gt;// Liste des franchises associées au jeu (ex. Grand Theft Auto).&lt;/span&gt;&lt;br&gt;&lt;br&gt;&lt;/div&gt;&lt;div&gt;dlcs list                       &lt;span class=&quot;hljs-comment&quot;&gt;// Liste des DLC associés au jeu.&lt;/span&gt;&lt;br&gt;&lt;br&gt;&lt;/div&gt;&lt;div&gt;game_engines list               &lt;span class=&quot;hljs-comment&quot;&gt;// Liste des moteurs de jeu utilisés (ex. RAGE).&lt;/span&gt;&lt;br&gt;&lt;br&gt;&lt;/div&gt;&lt;div&gt;artworks list {&lt;br&gt;&lt;/div&gt;&lt;div&gt;    thumb varchar               &lt;span class=&quot;hljs-comment&quot;&gt;// URL vers la version miniature de l&#39;artwork.&lt;/span&gt;&lt;br&gt;&lt;/div&gt;&lt;div&gt;    original varchar            &lt;span class=&quot;hljs-comment&quot;&gt;// URL vers la version haute résolution de l&#39;artwork.&lt;/span&gt;&lt;br&gt;}&lt;br&gt;&lt;br&gt;&lt;/div&gt;&lt;div&gt;videos list                     &lt;span class=&quot;hljs-comment&quot;&gt;// Liens vers des vidéos (ex. trailers YouTube).&lt;/span&gt;&lt;br&gt;&lt;br&gt;&lt;/div&gt;&lt;div&gt;added &lt;span class=&quot;hljs-built_in&quot;&gt;int&lt;/span&gt;                       &lt;span class=&quot;hljs-comment&quot;&gt;// Indicateur ou compteur d&#39;ajout.&lt;/span&gt;&lt;/div&gt;&lt;div&gt;&lt;span class=&quot;hljs-comment&quot;&gt;&lt;br&gt;&lt;/span&gt;&lt;/div&gt;" style="text;whiteSpace=wrap;html=1;" vertex="1" parent="wkWIW-sbkFtgI-aQdSFa-258">
          <mxGeometry y="26" width="450" height="814" as="geometry" />
        </mxCell>
        <mxCell id="Fe-9JFW8YyZdNJE1xxGx-5" style="edgeStyle=orthogonalEdgeStyle;rounded=0;orthogonalLoop=1;jettySize=auto;html=1;exitX=0.5;exitY=1;exitDx=0;exitDy=0;" edge="1" parent="wkWIW-sbkFtgI-aQdSFa-258" source="Fe-9JFW8YyZdNJE1xxGx-4" target="Fe-9JFW8YyZdNJE1xxGx-4">
          <mxGeometry relative="1" as="geometry" />
        </mxCell>
        <mxCell id="wkWIW-sbkFtgI-aQdSFa-285" value="Comment" style="swimlane;fontStyle=0;childLayout=stackLayout;horizontal=1;startSize=26;horizontalStack=0;resizeParent=1;resizeParentMax=0;resizeLast=0;collapsible=1;marginBottom=0;align=center;fontSize=14;strokeColor=#82b366;fillColor=#d5e8d4;" parent="1" vertex="1">
          <mxGeometry x="1090" y="1360" width="490" height="266" as="geometry" />
        </mxCell>
        <mxCell id="wkWIW-sbkFtgI-aQdSFa-286" value="_id ObjectId()&lt;span style=&quot;white-space: pre;&quot;&gt;&#x9;&lt;/span&gt;// ID unique du commentaire" style="text;strokeColor=none;fillColor=none;spacingLeft=4;spacingRight=4;overflow=hidden;rotatable=0;points=[[0,0.5],[1,0.5]];portConstraint=eastwest;fontSize=12;whiteSpace=wrap;html=1;" parent="wkWIW-sbkFtgI-aQdSFa-285" vertex="1">
          <mxGeometry y="26" width="490" height="30" as="geometry" />
        </mxCell>
        <mxCell id="wkWIW-sbkFtgI-aQdSFa-287" value="user_id ObjectId()&amp;nbsp; // Utilisateur ayant posté le commentaire" style="text;strokeColor=none;fillColor=none;spacingLeft=4;spacingRight=4;overflow=hidden;rotatable=0;points=[[0,0.5],[1,0.5]];portConstraint=eastwest;fontSize=12;whiteSpace=wrap;html=1;" parent="wkWIW-sbkFtgI-aQdSFa-285" vertex="1">
          <mxGeometry y="56" width="490" height="30" as="geometry" />
        </mxCell>
        <mxCell id="wkWIW-sbkFtgI-aQdSFa-288" value="game_id ObjectId()&amp;nbsp; // (Facultatif) Objet auquel le commentaire est associé" style="text;strokeColor=none;fillColor=none;spacingLeft=4;spacingRight=4;overflow=hidden;rotatable=0;points=[[0,0.5],[1,0.5]];portConstraint=eastwest;fontSize=12;whiteSpace=wrap;html=1;" parent="wkWIW-sbkFtgI-aQdSFa-285" vertex="1">
          <mxGeometry y="86" width="490" height="30" as="geometry" />
        </mxCell>
        <mxCell id="wkWIW-sbkFtgI-aQdSFa-289" value="content varchar&amp;nbsp;&amp;nbsp;&lt;span lang=&quot;fr&quot; class=&quot;HwtZe&quot;&gt;// Contenu du commentaire de l&#39;utilisateur&lt;/span&gt;" style="text;strokeColor=none;fillColor=none;spacingLeft=4;spacingRight=4;overflow=hidden;rotatable=0;points=[[0,0.5],[1,0.5]];portConstraint=eastwest;fontSize=12;whiteSpace=wrap;html=1;" parent="wkWIW-sbkFtgI-aQdSFa-285" vertex="1">
          <mxGeometry y="116" width="490" height="30" as="geometry" />
        </mxCell>
        <mxCell id="wkWIW-sbkFtgI-aQdSFa-290" value="parent_id ObjectId()&amp;nbsp;// ID du commentaire parent (null si c&#39;est un commentaire principal)" style="text;strokeColor=none;fillColor=none;spacingLeft=4;spacingRight=4;overflow=hidden;rotatable=0;points=[[0,0.5],[1,0.5]];portConstraint=eastwest;fontSize=12;whiteSpace=wrap;html=1;" parent="wkWIW-sbkFtgI-aQdSFa-285" vertex="1">
          <mxGeometry y="146" width="490" height="30" as="geometry" />
        </mxCell>
        <mxCell id="wkWIW-sbkFtgI-aQdSFa-291" value="created_at date&amp;nbsp; //&amp;nbsp;&lt;span lang=&quot;fr&quot; class=&quot;HwtZe&quot;&gt;Heure à laquelle le commentaire est publié&lt;/span&gt;" style="text;strokeColor=none;fillColor=none;spacingLeft=4;spacingRight=4;overflow=hidden;rotatable=0;points=[[0,0.5],[1,0.5]];portConstraint=eastwest;fontSize=12;whiteSpace=wrap;html=1;" parent="wkWIW-sbkFtgI-aQdSFa-285" vertex="1">
          <mxGeometry y="176" width="490" height="30" as="geometry" />
        </mxCell>
        <mxCell id="wkWIW-sbkFtgI-aQdSFa-292" value="is_modified boolean&amp;nbsp; // Si le commentaire a été modifié" style="text;strokeColor=none;fillColor=none;spacingLeft=4;spacingRight=4;overflow=hidden;rotatable=0;points=[[0,0.5],[1,0.5]];portConstraint=eastwest;fontSize=12;whiteSpace=wrap;html=1;" parent="wkWIW-sbkFtgI-aQdSFa-285" vertex="1">
          <mxGeometry y="206" width="490" height="30" as="geometry" />
        </mxCell>
        <mxCell id="wkWIW-sbkFtgI-aQdSFa-293" value="modified_date&amp;nbsp; // Uniquement lorsque le commentaire est modifié" style="text;strokeColor=none;fillColor=none;spacingLeft=4;spacingRight=4;overflow=hidden;rotatable=0;points=[[0,0.5],[1,0.5]];portConstraint=eastwest;fontSize=12;whiteSpace=wrap;html=1;" parent="wkWIW-sbkFtgI-aQdSFa-285" vertex="1">
          <mxGeometry y="236" width="490" height="30" as="geometry" />
        </mxCell>
      </root>
    </mxGraphModel>
  </diagram>
</mxfile>
